<?xml version="1.0" encoding="UTF-8" standalone="no"?>
<!-- Created with Inkscape (http://www.inkscape.org/) -->
<svg
   xmlns:dc="http://purl.org/dc/elements/1.1/"
   xmlns:cc="http://web.resource.org/cc/"
   xmlns:rdf="http://www.w3.org/1999/02/22-rdf-syntax-ns#"
   xmlns:svg="http://www.w3.org/2000/svg"
   xmlns="http://www.w3.org/2000/svg"
   xmlns:xlink="http://www.w3.org/1999/xlink"
   xmlns:sodipodi="http://sodipodi.sourceforge.net/DTD/sodipodi-0.dtd"
   xmlns:inkscape="http://www.inkscape.org/namespaces/inkscape"
   width="744.09448819"
   height="1052.3622047"
   id="svg3903"
   sodipodi:version="0.32"
   inkscape:version="0.45"
   sodipodi:docbase="/home/nate/birdtoast"
   sodipodi:docname="mother_goose.svg"
   inkscape:output_extension="org.inkscape.output.svg.inkscape"
   sodipodi:modified="true">
  <defs
     id="defs3905">
    <linearGradient
       id="linearGradient4749">
      <stop
         style="stop-color:#fffffd;stop-opacity:1;"
         offset="0"
         id="stop4751" />
      <stop
         style="stop-color:#675418;stop-opacity:0.6122449;"
         offset="1"
         id="stop4753" />
    </linearGradient>
    <linearGradient
       inkscape:collect="always"
       id="linearGradient4454">
      <stop
         style="stop-color:#f3ece4;stop-opacity:1;"
         offset="0"
         id="stop4456" />
      <stop
         style="stop-color:#f3ece4;stop-opacity:0;"
         offset="1"
         id="stop4458" />
    </linearGradient>
    <linearGradient
       id="linearGradient4438">
      <stop
         style="stop-color:#cfbb8b;stop-opacity:1;"
         offset="0"
         id="stop4440" />
      <stop
         style="stop-color:#ece3cb;stop-opacity:1;"
         offset="1"
         id="stop4442" />
    </linearGradient>
    <linearGradient
       id="linearGradient4118">
      <stop
         style="stop-color:#f0d2b2;stop-opacity:1;"
         offset="0"
         id="stop4120" />
      <stop
         id="stop4292"
         offset="0.5"
         style="stop-color:#8f875f;stop-opacity:1;" />
      <stop
         style="stop-color:#e6b720;stop-opacity:1;"
         offset="1"
         id="stop4122" />
    </linearGradient>
    <linearGradient
       inkscape:collect="always"
       id="linearGradient4092">
      <stop
         style="stop-color:#ae6d1a;stop-opacity:1"
         offset="0"
         id="stop4094" />
      <stop
         style="stop-color:#6f091b;stop-opacity:0.08474576"
         offset="1"
         id="stop4096" />
    </linearGradient>
    <linearGradient
       id="linearGradient4010">
      <stop
         id="stop4012"
         offset="0"
         style="stop-color:#ff2222;stop-opacity:1;" />
      <stop
         id="stop4014"
         offset="1"
         style="stop-color:#ff0000;stop-opacity:0.54802263" />
    </linearGradient>
    <linearGradient
       inkscape:collect="always"
       id="linearGradient4000">
      <stop
         style="stop-color:#000000;stop-opacity:0.74011302"
         offset="0"
         id="stop4002" />
      <stop
         style="stop-color:#000000;stop-opacity:0.05649718"
         offset="1"
         id="stop4004" />
    </linearGradient>
    <linearGradient
       id="linearGradient3978">
      <stop
         style="stop-color:#b6a574;stop-opacity:1;"
         offset="0"
         id="stop3980" />
      <stop
         id="stop4709"
         offset="0.57692307"
         style="stop-color:#f9f2cd;stop-opacity:1;" />
      <stop
         style="stop-color:#87653d;stop-opacity:1;"
         offset="1"
         id="stop3982" />
    </linearGradient>
    <linearGradient
       inkscape:collect="always"
       id="linearGradient3972">
      <stop
         style="stop-color:#eeebc6;stop-opacity:1;"
         offset="0"
         id="stop3974" />
      <stop
         style="stop-color:#eeebc6;stop-opacity:0;"
         offset="1"
         id="stop3976" />
    </linearGradient>
    <linearGradient
       inkscape:collect="always"
       xlink:href="#linearGradient3972"
       id="linearGradient3964"
       x1="-42.43396"
       y1="512.60223"
       x2="-37.341885"
       y2="580.93646"
       gradientUnits="userSpaceOnUse" />
    <linearGradient
       inkscape:collect="always"
       xlink:href="#linearGradient3978"
       id="linearGradient3984"
       x1="10.18415"
       y1="510.90488"
       x2="-36.613251"
       y2="-112.02566"
       gradientUnits="userSpaceOnUse"
       gradientTransform="translate(-6.7894334,10.18415)" />
    <filter
       inkscape:collect="always"
       x="-0.076477154"
       width="1.1529543"
       y="-0.1136467"
       height="1.2272934"
       id="filter4078">
      <feGaussianBlur
         inkscape:collect="always"
         stdDeviation="1.5989043"
         id="feGaussianBlur4080" />
    </filter>
    <linearGradient
       inkscape:collect="always"
       xlink:href="#linearGradient4010"
       id="linearGradient4086"
       gradientUnits="userSpaceOnUse"
       x1="-75.013351"
       y1="-153.85249"
       x2="-102.61826"
       y2="-169.45528" />
    <linearGradient
       inkscape:collect="always"
       xlink:href="#linearGradient4000"
       id="linearGradient4088"
       gradientUnits="userSpaceOnUse"
       gradientTransform="translate(1.6862247e-8,0.4014952)"
       x1="-75.013351"
       y1="-153.85249"
       x2="-102.61826"
       y2="-169.45528" />
    <linearGradient
       inkscape:collect="always"
       xlink:href="#linearGradient4092"
       id="linearGradient4098"
       x1="-112.21997"
       y1="-44.032948"
       x2="-51.009079"
       y2="-51.23423"
       gradientUnits="userSpaceOnUse" />
    <linearGradient
       inkscape:collect="always"
       xlink:href="#linearGradient4010"
       id="linearGradient4112"
       gradientUnits="userSpaceOnUse"
       x1="-75.013351"
       y1="-153.85249"
       x2="-102.61826"
       y2="-169.45528" />
    <linearGradient
       inkscape:collect="always"
       xlink:href="#linearGradient4000"
       id="linearGradient4114"
       gradientUnits="userSpaceOnUse"
       gradientTransform="translate(1.6862247e-8,0.4014952)"
       x1="-75.013351"
       y1="-153.85249"
       x2="-102.61826"
       y2="-169.45528" />
    <linearGradient
       inkscape:collect="always"
       xlink:href="#linearGradient4092"
       id="linearGradient4116"
       gradientUnits="userSpaceOnUse"
       x1="-112.21997"
       y1="-44.032948"
       x2="-51.009079"
       y2="-51.23423"
       gradientTransform="matrix(-1,0,0,1,-89.90877,0)" />
    <linearGradient
       inkscape:collect="always"
       xlink:href="#linearGradient4118"
       id="linearGradient4124"
       x1="-46.729919"
       y1="-240.17621"
       x2="-46.729919"
       y2="-63.650936"
       gradientUnits="userSpaceOnUse" />
    <filter
       inkscape:collect="always"
       x="-0.11205309"
       width="1.2241062"
       y="-0.11440387"
       height="1.2288077"
       id="filter4284">
      <feGaussianBlur
         inkscape:collect="always"
         stdDeviation="1.6362564"
         id="feGaussianBlur4286" />
    </filter>
    <filter
       inkscape:collect="always"
       x="-0.11205308"
       width="1.2241062"
       y="-0.11440387"
       height="1.2288077"
       id="filter4288">
      <feGaussianBlur
         inkscape:collect="always"
         stdDeviation="1.6362564"
         id="feGaussianBlur4290" />
    </filter>
    <filter
       inkscape:collect="always"
       x="-0.11655562"
       width="1.2331112"
       y="-0.045291991"
       height="1.090584"
       id="filter4430">
      <feGaussianBlur
         inkscape:collect="always"
         stdDeviation="5.0011258"
         id="feGaussianBlur4432" />
    </filter>
    <filter
       inkscape:collect="always"
       x="-0.11655562"
       width="1.2331112"
       y="-0.045291991"
       height="1.090584"
       id="filter4434">
      <feGaussianBlur
         inkscape:collect="always"
         stdDeviation="5.0011258"
         id="feGaussianBlur4436" />
    </filter>
    <linearGradient
       inkscape:collect="always"
       xlink:href="#linearGradient4438"
       id="linearGradient4444"
       x1="758.53497"
       y1="200.21053"
       x2="547.29742"
       y2="421.3728"
       gradientUnits="userSpaceOnUse" />
    <linearGradient
       inkscape:collect="always"
       xlink:href="#linearGradient4438"
       id="linearGradient4452"
       x1="-914.71838"
       y1="442.95911"
       x2="-549.95905"
       y2="442.95911"
       gradientUnits="userSpaceOnUse" />
    <linearGradient
       inkscape:collect="always"
       xlink:href="#linearGradient4454"
       id="linearGradient4460"
       x1="69.612389"
       y1="113.79515"
       x2="588.10468"
       y2="291.42676"
       gradientUnits="userSpaceOnUse" />
    <linearGradient
       inkscape:collect="always"
       xlink:href="#linearGradient4454"
       id="linearGradient4468"
       x1="-154.88795"
       y1="139.04561"
       x2="-654.92224"
       y2="295.07336"
       gradientUnits="userSpaceOnUse" />
    <filter
       inkscape:collect="always"
       id="filter4688">
      <feGaussianBlur
         inkscape:collect="always"
         stdDeviation="6.1086892"
         id="feGaussianBlur4690" />
    </filter>
    <filter
       inkscape:collect="always"
       id="filter4692">
      <feGaussianBlur
         inkscape:collect="always"
         stdDeviation="6.1086892"
         id="feGaussianBlur4694" />
    </filter>
    <filter
       inkscape:collect="always"
       id="filter4696">
      <feGaussianBlur
         inkscape:collect="always"
         stdDeviation="6.1086892"
         id="feGaussianBlur4698" />
    </filter>
    <radialGradient
       inkscape:collect="always"
       xlink:href="#linearGradient4749"
       id="radialGradient4755"
       cx="28.855093"
       cy="375.11621"
       fx="28.855093"
       fy="375.11621"
       r="123.90716"
       gradientTransform="matrix(1.3841218,0,0,1.5285689,-11.083872,-198.27477)"
       gradientUnits="userSpaceOnUse" />
    <filter
       inkscape:collect="always"
       x="-0.12564751"
       width="1.251295"
       y="-0.10790903"
       height="1.2158181"
       id="filter4781">
      <feGaussianBlur
         inkscape:collect="always"
         stdDeviation="15.568626"
         id="feGaussianBlur4783" />
    </filter>
    <filter
       inkscape:collect="always"
       x="-0.65071253"
       width="2.3014251"
       y="-0.20212319"
       height="1.4042464"
       id="filter7457">
      <feGaussianBlur
         inkscape:collect="always"
         stdDeviation="29.49963"
         id="feGaussianBlur7459" />
    </filter>
    <filter
       inkscape:collect="always"
       x="-0.76322517"
       width="2.5264503"
       y="-0.35122859"
       height="1.7024572"
       id="filter7461">
      <feGaussianBlur
         inkscape:collect="always"
         stdDeviation="29.49963"
         id="feGaussianBlur7463" />
    </filter>
    <filter
       inkscape:collect="always"
       x="-0.45599875"
       width="1.9119975"
       y="-0.23821785"
       height="1.4764357"
       id="filter7465">
      <feGaussianBlur
         inkscape:collect="always"
         stdDeviation="29.49963"
         id="feGaussianBlur7467" />
    </filter>
    <filter
       inkscape:collect="always"
       x="-0.76150972"
       width="2.5230194"
       y="-0.24975129"
       height="1.4995026"
       id="filter7469">
      <feGaussianBlur
         inkscape:collect="always"
         stdDeviation="29.49963"
         id="feGaussianBlur7471" />
    </filter>
  </defs>
  <sodipodi:namedview
     id="base"
     pagecolor="#1e1e1e"
     bordercolor="#ffffff"
     borderopacity="0.0"
     inkscape:pageopacity="0.71372549"
     inkscape:pageshadow="0"
     inkscape:zoom="0.29457539"
     inkscape:cx="3.9847744"
     inkscape:cy="622.4112"
     inkscape:document-units="px"
     inkscape:current-layer="layer1"
     inkscape:window-width="1026"
     inkscape:window-height="834"
     inkscape:window-x="25"
     inkscape:window-y="49" />
  <metadata
     id="metadata3908">
    <rdf:RDF>
      <cc:Work
         rdf:about="">
        <dc:format>image/svg+xml</dc:format>
        <dc:type
           rdf:resource="http://purl.org/dc/dcmitype/StillImage" />
      </cc:Work>
    </rdf:RDF>
  </metadata>
  <g
     inkscape:label="body"
     inkscape:groupmode="layer"
     id="layer1"
     style="display:inline">
    <path
       style="fill:url(#linearGradient4460);fill-opacity:1;fill-rule:evenodd;stroke:#000000;stroke-width:11.28238773;stroke-linecap:butt;stroke-linejoin:miter;stroke-miterlimit:4;stroke-dasharray:none;stroke-opacity:1;filter:url(#filter4696)"
       d="M 588.79435,566.68744 L 500.68424,427.46708 C 500.68424,427.46708 491.55092,467.60001 474.89601,458.10928 C 458.24102,448.61854 434.06444,389.50412 434.06444,389.50412 C 434.06444,389.50412 415.79771,424.10316 395.38197,416.12616 C 374.96622,408.14916 352.40144,357.59613 352.40144,357.59613 C 352.40144,357.59613 338.97003,393.16547 322.31507,386.89827 C 305.66012,380.63106 285.78163,332.52733 285.78163,332.52733 C 285.78163,332.52733 266.97765,365.88435 257.84429,362.49949 C 248.71093,359.11463 249.24818,318.98789 249.24818,318.98789 L 100.96537,494.10593 L 17.153338,3.7853224 L 113.85952,-163.77402 C 113.85952,-163.77402 217.01278,-19.326236 341.65631,6.1037554 C 466.29988,31.533754 612.43366,-62.054076 612.43366,-62.054076"
       id="path10028"
       sodipodi:nodetypes="ccscscscscccczc" />
    <path
       sodipodi:nodetypes="ccscscscscccczc"
       id="path11968"
       d="M -660.90275,566.68744 L -572.79264,427.46708 C -572.79264,427.46708 -563.65933,467.60001 -547.00441,458.10928 C -530.34943,448.61854 -506.17285,389.50412 -506.17285,389.50412 C -506.17285,389.50412 -487.90612,424.10316 -467.49038,416.12616 C -447.07462,408.14916 -424.50984,357.59613 -424.50984,357.59613 C -424.50984,357.59613 -411.07846,393.16547 -394.42347,386.89827 C -377.76856,380.63106 -357.89005,332.52733 -357.89005,332.52733 C -357.89005,332.52733 -339.08607,365.88435 -329.95268,362.49949 C -320.81936,359.11463 -321.35662,318.98789 -321.35662,318.98789 L -173.07378,494.10593 L -89.261732,3.7853224 L -185.96797,-163.77402 C -185.96797,-163.77402 -289.12119,-19.326236 -413.76472,6.1037554 C -538.40829,31.533754 -684.54206,-62.054076 -684.54206,-62.054076"
       style="fill:url(#linearGradient4468);fill-opacity:1;fill-rule:evenodd;stroke:#000000;stroke-width:11.28238773;stroke-linecap:butt;stroke-linejoin:miter;stroke-miterlimit:4;stroke-dasharray:none;stroke-opacity:1;filter:url(#filter4692)" />
    <path
       style="fill:url(#linearGradient3964);fill-opacity:1;fill-rule:nonzero;stroke:#000000;stroke-width:16;stroke-linecap:round;stroke-linejoin:round;stroke-miterlimit:4;stroke-dasharray:none;stroke-opacity:1;filter:url(#filter4688)"
       d="M -160,509.50504 C -160,509.50504 -276.42858,560.21932 -285.71429,572.36218 C -295,584.50504 -178.47192,561.47119 -178.47192,561.47119 C -178.47192,561.47119 -202.14286,603.79075 -180,609.50504 C -157.85714,615.21933 -131.42857,578.79075 -108.57143,580.93361 C -85.714287,583.07647 -88.571429,618.07647 -88.571429,618.07647 L -62.857143,583.79075 C -62.857143,583.79075 -50.714286,651.64789 -37.142857,652.36218 C -23.571428,653.07647 -8.5714286,586.6479 -8.5714286,586.6479 L 17.142857,623.79075 C 17.142857,623.79075 5.0000008,589.50504 28.571429,586.6479 C 52.142857,583.79076 90,617.36218 111.42857,612.36218 C 132.85714,607.36218 97.312126,573.43733 97.312126,573.43733 C 97.312126,573.43733 195,610.21933 188.57143,598.07647 C 182.14286,585.93361 88.571429,518.07647 88.571429,518.07647 L -160,509.50504 z "
       id="path3942"
       sodipodi:nodetypes="cscssccsccsscscc" />
    <path
       style="fill:url(#linearGradient3984);fill-opacity:1;fill-rule:evenodd;stroke:#000000;stroke-width:15;stroke-linecap:round;stroke-linejoin:round;stroke-miterlimit:4;stroke-dasharray:none;stroke-opacity:1"
       d="M -109.98156,-234.92737 C -109.98156,-234.92737 -131.20153,-364.91403 -62.702983,-372.46505 C 5.5286046,-379.98664 -0.38122333,-230.62931 -0.38122333,-230.62931 L 14.661961,10.061629 C 14.661961,10.061629 76.983721,72.920649 111.36815,162.64249 C 145.75257,252.36434 164.55654,280.30169 152.19964,368.94902 C 139.84274,457.59635 73.785638,529.02602 73.785638,529.02602 C 73.785638,529.02602 44.312874,566.76124 -37.989183,562.98772 C -123.97443,559.04532 -161.08456,521.47898 -161.08456,521.47898 C -161.08456,521.47898 -215.28384,472.63954 -234.62508,386.14123 C -253.96632,299.64292 -236.77411,266.33301 -206.68774,173.38763 C -176.60137,80.442241 -114.27961,14.359685 -114.27961,14.359685 L -109.98156,-234.92737 z "
       id="path7116"
       sodipodi:nodetypes="czcczzczczzcc" />
    <path
       sodipodi:nodetypes="ccczczczczcczczc"
       id="path11970"
       d="M -680.33953,-57.653448 L -557.98857,257.40034 L -561.04738,651.98227 C -561.04738,651.98227 -586.28224,919.62505 -609.98767,942.56586 C -633.69324,965.50667 -655.86938,743.74552 -655.86938,743.74552 C -655.86938,743.74552 -661.32863,888.90067 -686.45706,850.80261 C -710.16264,814.86203 -713.98609,697.86389 -713.98609,697.86389 C -713.98609,697.86389 -723.16251,801.86222 -738.45631,795.74468 C -753.75019,789.62713 -775.1616,673.39369 -775.1616,673.39369 C -775.1616,673.39369 -778.22033,759.03938 -790.45548,743.74552 C -802.69063,728.45164 -824.10204,612.2182 -824.10204,612.2182 L -824.10204,685.62879 C -824.10204,685.62879 -857.74846,658.09983 -876.10114,584.68923 C -894.45375,511.27864 -906.6889,376.69255 -906.6889,376.69255 C -906.6889,376.69255 -873.22504,214.58043 -839.39585,122.81426 C -806.52408,33.645223 -670.55326,-67.439769 -680.33953,-57.653448 z "
       style="fill:url(#linearGradient4452);fill-opacity:1;fill-rule:evenodd;stroke:#000000;stroke-width:16.05900002;stroke-linecap:butt;stroke-linejoin:miter;stroke-miterlimit:4;stroke-dasharray:none;stroke-opacity:1" />
    <path
       style="fill:url(#linearGradient4444);fill-opacity:1;fill-rule:evenodd;stroke:#000000;stroke-width:16.05856705;stroke-linecap:butt;stroke-linejoin:miter;stroke-miterlimit:4;stroke-dasharray:none;stroke-opacity:1"
       d="M 617.48237,-79.23974 L 495.13142,235.81405 L 498.19023,630.39597 C 498.19023,630.39597 523.42509,898.03876 547.13052,920.97957 C 570.83609,943.92037 593.01223,722.15922 593.01223,722.15922 C 593.01223,722.15922 598.47148,867.31437 623.59991,829.21632 C 647.30549,793.27573 651.12894,676.2776 651.12894,676.2776 C 651.12894,676.2776 660.30535,780.27593 675.59916,774.15839 C 690.89304,768.04084 712.30445,651.8074 712.30445,651.8074 C 712.30445,651.8074 715.36318,737.45309 727.59833,722.15922 C 739.83348,706.86534 761.24489,590.6319 761.24489,590.6319 L 761.24489,664.0425 C 761.24489,664.0425 794.89131,636.51353 813.24399,563.10294 C 831.5966,489.69234 843.83175,355.10626 843.83175,355.10626 C 843.83175,355.10626 810.36788,192.99414 776.5387,101.22797 C 743.66693,12.058931 607.69611,-89.026061 617.48237,-79.23974 z "
       id="path9057"
       sodipodi:nodetypes="ccczczczczcczczc" />
    <path
       sodipodi:type="arc"
       style="opacity:0.49142857;fill:url(#radialGradient4755);fill-opacity:1.0;fill-rule:nonzero;stroke:none;stroke-width:15;stroke-linecap:round;stroke-linejoin:round;stroke-miterlimit:4;stroke-dasharray:none;stroke-opacity:0.85490196;filter:url(#filter4781)"
       id="path4747"
       sodipodi:cx="28.855093"
       sodipodi:cy="375.11621"
       sodipodi:rx="123.90716"
       sodipodi:ry="144.27547"
       d="M 152.76225 375.11621 A 123.90716 144.27547 0 1 1  -95.052065,375.11621 A 123.90716 144.27547 0 1 1  152.76225 375.11621 z"
       transform="matrix(1.0698662,0,0,1.3541203,-63.120896,-182.05967)" />
    <path
       style="opacity:0.49142857;fill:#464e15;fill-opacity:1;fill-rule:nonzero;stroke:none;stroke-width:15;stroke-linecap:round;stroke-linejoin:round;stroke-miterlimit:4;stroke-dasharray:none;stroke-opacity:0.85490196;filter:url(#filter7465)"
       id="path7223"
       d="M -813.53486,340.35864 C -828.29114,346.00149 -839.05038,356.2812 -848.06538,368.71698 C -851.13516,384.6366 -839.30774,397.05464 -830.99344,410.10946 C -819.86369,427.1432 -806.84589,442.70053 -794.02922,458.44788 C -787.58937,465.50936 -789.07432,472.16329 -788.83766,480.61485 C -790.71174,490.6914 -797.45328,497.79202 -803.54595,505.54236 C -808.24267,511.32516 -806.98033,517.29848 -807.26341,524.0757 C -805.19506,532.35129 -800.44918,539.30644 -796.1366,546.50255 C -792.66856,553.30855 -786.51135,557.06434 -780.79085,561.59495 C -773.55299,566.45543 -771.85408,573.4627 -769.10823,581.0107 L -819.13474,582.08602 C -822.39716,576.12285 -823.6459,569.71127 -830.68629,566.31863 C -836.24189,561.01552 -842.48964,556.435 -845.87913,549.18939 C -850.36943,541.22432 -855.52769,533.47966 -857.34269,524.35338 C -857.38368,516.40726 -858.00229,509.15135 -853.19749,502.21339 C -847.50447,495.3731 -840.91837,489.08809 -838.97592,480.08619 C -839.06507,472.92684 -837.85899,467.79343 -843.15503,461.69553 C -855.12469,445.52364 -867.73436,429.8631 -878.63851,412.9255 C -888.36757,399.08535 -902.33204,383.88872 -897.50864,366.12 C -888.29742,353.25575 -877.39606,342.10138 -863.21927,334.41667 L -813.53486,340.35864 z " />
    <path
       style="opacity:0.49142857;fill:#464e15;fill-opacity:1;fill-rule:nonzero;stroke:none;stroke-width:15;stroke-linecap:round;stroke-linejoin:round;stroke-miterlimit:4;stroke-dasharray:none;stroke-opacity:0.85490196;filter:url(#filter7457)"
       id="path7227"
       d="M 806.39888,305.64967 C 809.64263,316.98243 811.5868,328.42585 812.76965,340.12152 C 812.95064,348.43189 812.75469,356.74454 812.63948,365.05461 C 814.45408,373.88082 818.75914,382.12557 822.11315,390.5047 C 827.18152,398.59688 830.08653,407.29822 833.00705,416.13808 C 836.1687,424.82162 835.72031,433.81208 835.87867,442.75676 C 833.14161,453.47356 825.68945,460.98905 818.27604,468.69705 C 811.01032,473.90844 806.90565,480.96284 802.54235,488.27423 C 799.41003,495.52636 799.16108,503.14078 798.67423,510.8417 C 798.7963,518.97077 801.90847,526.66361 804.48832,534.26778 C 805.98886,542.97905 807.46867,551.66911 808.86598,560.40273 C 811.18506,569.94068 807.63535,577.05779 804.63493,585.6505 C 802.01694,590.17978 798.18626,593.71481 794.72156,597.5472 L 745.20997,593.67366 C 748.456,590.14573 752.31264,587.13041 754.96902,583.06708 C 757.97822,575.51732 761.02182,569.6425 759.0124,561.00472 C 757.58746,552.53777 756.23572,544.05856 754.73217,535.60531 C 751.99274,527.52185 748.6233,519.42187 748.62408,510.76554 C 749.21365,502.59662 749.52895,494.47123 752.69863,486.73718 C 756.94973,478.35907 760.3648,470.37741 768.78164,464.73341 C 775.54316,457.83874 783.08557,451.6846 785.98629,442.07779 C 785.91043,433.66287 786.1539,425.27338 783.12855,417.08158 C 780.12254,408.67683 776.96976,400.3497 772.58835,392.43719 C 768.84042,383.45421 764.06102,374.65683 762.58173,364.96358 C 762.84406,356.78933 763.26302,348.6084 763.05524,340.4294 C 761.78141,328.91293 760.72589,317.44413 756.48152,306.47412 L 806.39888,305.64967 z " />
    <path
       style="opacity:0.49142857;fill:#464e15;fill-opacity:1;fill-rule:nonzero;stroke:none;stroke-width:15;stroke-linecap:round;stroke-linejoin:round;stroke-miterlimit:4;stroke-dasharray:none;stroke-opacity:0.85490196;filter:url(#filter7461)"
       id="path7229"
       d="M 701.86045,518.32193 C 707.85378,530.2842 712.04205,541.58838 713.66005,554.72788 C 713.40027,567.59294 706.94301,578.36775 701.21135,589.44553 C 695.7923,598.29941 697.22362,605.67994 698.79058,615.1718 C 701.89843,623.33914 702.71609,631.80949 703.86981,640.36039 C 705.62285,653.03712 701.86297,663.27323 696.34644,674.28244 C 693.51207,678.85863 689.5159,682.43324 685.86254,686.30159 L 636.35749,682.31274 C 639.86359,678.71238 643.95787,675.64092 646.89449,671.49245 C 652.66161,661.54865 656.08737,652.59395 654.26037,640.72153 C 652.89627,632.42064 651.52023,624.28209 648.92356,616.24293 C 647.57468,605.75836 645.86694,596.6313 651.70213,586.87089 C 657.35565,576.69489 663.86921,566.86836 664.2062,554.83149 C 662.48108,542.36782 658.32884,531.30329 651.85821,520.22546 L 701.86045,518.32193 z " />
    <path
       style="opacity:0.49142857;fill:#464e15;fill-opacity:1;fill-rule:nonzero;stroke:none;stroke-width:15;stroke-linecap:round;stroke-linejoin:round;stroke-miterlimit:4;stroke-dasharray:none;stroke-opacity:0.85490196;filter:url(#filter7469)"
       id="path7231"
       d="M -697.89416,478.09859 C -685.19816,492.87583 -677.88546,510.55213 -671.19016,528.55378 C -667.28357,539.59755 -671.78007,546.88176 -676.56618,556.37238 C -681.80457,562.20878 -684.81823,569.29862 -688.17623,576.25466 C -691.31014,582.46021 -692.59829,589.3183 -694.55552,595.88281 C -695.31102,602.49008 -694.85442,609.1524 -694.74305,615.78189 C -694.78818,624.4665 -692.03296,632.90179 -690.05101,641.29998 C -687.24328,651.40358 -681.5186,660.23476 -676.4721,669.30588 C -673.10104,676.15295 -673.74507,683.3443 -673.85583,690.6922 C -676.13716,697.31606 -676.71129,704.21162 -677.84043,711.03355 C -677.86594,712.13258 -677.89146,713.23161 -677.91697,714.33064 L -727.98692,714.21602 C -727.9605,713.04719 -727.93409,711.87836 -727.90768,710.70952 C -727.06006,703.84558 -726.46838,697.01168 -723.94765,690.46456 C -724.04907,684.02015 -723.01034,677.702 -726.24915,671.72593 C -731.22664,662.23006 -736.80706,652.91689 -739.63955,642.48662 C -741.84413,633.72954 -744.72407,625.01281 -744.81482,615.89107 C -744.96388,608.94309 -745.35627,601.96358 -744.60719,595.03682 C -742.80609,587.9102 -741.19548,580.74663 -738.11315,573.99338 C -734.70622,566.84873 -731.88501,559.31999 -726.32859,553.47767 C -721.49893,545.33296 -717.70538,539.90674 -720.23041,529.96283 C -726.14763,512.02103 -733.63566,495.33796 -747.18039,481.597 L -697.89416,478.09859 z " />
    <path
       d="M 603.41367,582.82155 C 609.407,594.78382 613.59527,606.088 615.21327,619.2275 C 614.95349,632.09256 608.49623,642.86737 602.76457,653.94515 C 597.34552,662.79903 598.77684,670.17956 600.3438,679.67142 C 603.45165,687.83876 604.26931,696.30911 605.42303,704.86001 C 607.17607,717.53674 603.41619,727.77285 597.89966,738.78206 C 595.06529,743.35825 591.06912,746.93286 587.41576,750.80121 L 537.91071,746.81236 C 541.41681,743.212 545.51109,740.14054 548.44771,735.99207 C 554.21483,726.04827 557.64059,717.09357 555.81359,705.22115 C 554.44949,696.92026 553.07345,688.78171 550.47678,680.74255 C 549.1279,670.25798 547.42016,661.13092 553.25535,651.37051 C 558.90887,641.19451 565.42243,631.36798 565.75942,619.33111 C 564.0343,606.86744 559.88206,595.80291 553.41143,584.72508 L 603.41367,582.82155 z "
       id="path7473"
       style="opacity:0.49142857;fill:#464e15;fill-opacity:1;fill-rule:nonzero;stroke:none;stroke-width:15;stroke-linecap:round;stroke-linejoin:round;stroke-miterlimit:4;stroke-dasharray:none;stroke-opacity:0.85490196;filter:url(#filter7461)"
       transform="matrix(0.6486826,0,0,0.8383272,219.52983,124.77881)" />
    <path
       d="M -697.89416,478.09859 C -685.19816,492.87583 -677.88546,510.55213 -671.19016,528.55378 C -667.28357,539.59755 -671.78007,546.88176 -676.56618,556.37238 C -681.80457,562.20878 -684.81823,569.29862 -688.17623,576.25466 C -691.31014,582.46021 -692.59829,589.3183 -694.55552,595.88281 C -695.31102,602.49008 -694.85442,609.1524 -694.74305,615.78189 C -694.78818,624.4665 -692.03296,632.90179 -690.05101,641.29998 C -687.24328,651.40358 -681.5186,660.23476 -676.4721,669.30588 C -673.10104,676.15295 -673.74507,683.3443 -673.85583,690.6922 C -676.13716,697.31606 -676.71129,704.21162 -677.84043,711.03355 C -677.86594,712.13258 -677.89146,713.23161 -677.91697,714.33064 L -727.98692,714.21602 C -727.9605,713.04719 -727.93409,711.87836 -727.90768,710.70952 C -727.06006,703.84558 -726.46838,697.01168 -723.94765,690.46456 C -724.04907,684.02015 -723.01034,677.702 -726.24915,671.72593 C -731.22664,662.23006 -736.80706,652.91689 -739.63955,642.48662 C -741.84413,633.72954 -744.72407,625.01281 -744.81482,615.89107 C -744.96388,608.94309 -745.35627,601.96358 -744.60719,595.03682 C -742.80609,587.9102 -741.19548,580.74663 -738.11315,573.99338 C -734.70622,566.84873 -731.88501,559.31999 -726.32859,553.47767 C -721.49893,545.33296 -717.70538,539.90674 -720.23041,529.96283 C -726.14763,512.02103 -733.63566,495.33796 -747.18039,481.597 L -697.89416,478.09859 z "
       id="path7475"
       style="opacity:0.49142857;fill:#464e15;fill-opacity:1;fill-rule:nonzero;stroke:none;stroke-width:15;stroke-linecap:round;stroke-linejoin:round;stroke-miterlimit:4;stroke-dasharray:none;stroke-opacity:0.85490196;filter:url(#filter7469)"
       transform="matrix(0.8247361,0,0,0.8562974,-42.691099,170.54553)" />
  </g>
  <g
     inkscape:groupmode="layer"
     id="layer2"
     inkscape:label="face"
     style="display:inline">
    <path
       style="fill:url(#linearGradient4124);fill-opacity:1;fill-rule:evenodd;stroke:#000000;stroke-width:12.49699974;stroke-linecap:butt;stroke-linejoin:round;stroke-miterlimit:4;stroke-dasharray:none;stroke-opacity:1"
       d="M -140.51332,-260.97551 C -140.51332,-260.97551 -129.79155,-254.65041 -125.90918,-204.84285 C -121.80764,-152.22349 -161.58903,-200.37293 -142.73181,-151.20393 C -123.87459,-102.03494 -105.01737,9.7732919 -105.01737,9.7732919 L -42.899443,76.183383 L 8.1259837,17.435996 C 8.1259837,17.435996 31.446484,-94.387361 49.194463,-145.47204 C 66.942434,-196.55672 33.48106,-154.98993 32.37182,-191.38775 C 31.262566,-227.78559 43.621948,-260.97551 43.621948,-260.97551 L 3.6889966,-248.20434 C 3.6889966,-248.20434 -5.1849927,-296.09622 -49.554932,-296.73477 C -93.952595,-297.37373 -102.79886,-250.75857 -102.79886,-250.75857 L -140.51332,-260.97551 z "
       id="path6145"
       sodipodi:nodetypes="czsccczzcczcc" />
    <g
       id="g4082"
       transform="translate(2.4004272,-1.2002136)">
      <path
         style="fill:url(#linearGradient4086);fill-opacity:1;fill-rule:evenodd;stroke:#000000;stroke-width:1px;stroke-linecap:butt;stroke-linejoin:miter;stroke-opacity:1;filter:url(#filter4078)"
         d="M -106.2189,-170.65548 C -106.2189,-170.65548 -100.81794,-168.85516 -101.41805,-178.45687 C -94.816876,-175.45634 -97.967436,-167.3549 -79.814205,-158.65335 C -70.235513,-154.06191 -65.411642,-151.45207 -65.411642,-151.45207 C -65.411642,-151.45207 -86.41538,-150.25186 -96.617195,-155.05271 C -106.81901,-159.85356 -106.2189,-170.65548 -106.2189,-170.65548 z "
         id="path4008"
         sodipodi:nodetypes="ccsczc" />
      <path
         sodipodi:nodetypes="ccsczc"
         id="path3990"
         d="M -106.21891,-170.25398 C -106.21891,-170.25398 -100.81795,-168.45366 -101.41806,-178.05537 C -94.816876,-175.05484 -97.967436,-166.9534 -79.814205,-158.25185 C -70.235513,-153.66041 -65.411642,-151.05057 -65.411642,-151.05057 C -65.411642,-151.05057 -86.41538,-149.85036 -96.617195,-154.65121 C -106.81902,-159.45206 -106.21891,-170.25398 -106.21891,-170.25398 z "
         style="fill:url(#linearGradient4088);fill-opacity:1;fill-rule:evenodd;stroke:#000000;stroke-width:1px;stroke-linecap:butt;stroke-linejoin:miter;stroke-opacity:1" />
    </g>
    <path
       style="fill:url(#linearGradient4098);fill-opacity:1;fill-rule:evenodd;stroke:#000000;stroke-width:1px;stroke-linecap:butt;stroke-linejoin:miter;stroke-opacity:1;filter:url(#filter4430)"
       d="M -129.02296,-108.24438 L -76.813671,-128.64801 L -45.608117,-146.0511 L -43.20769,74.7882 L -103.81848,9.9766652 L -129.02296,-108.24438 z "
       id="path4090" />
    <path
       style="fill:#6f091b;fill-opacity:1;fill-rule:evenodd;stroke:#000000;stroke-width:1px;stroke-linecap:butt;stroke-linejoin:miter;stroke-opacity:1;filter:url(#filter4284)"
       d="M -71.412709,18.37816 C -71.412709,18.37816 -74.863323,19.7284 -82.214632,14.777519 C -78.16391,22.428882 -74.413243,27.379763 -74.413243,27.379763 L -54.009612,42.382433 L -71.412709,18.37816 z "
       id="path4100"
       sodipodi:nodetypes="ccccc" />
    <g
       transform="matrix(-1,0,0,1,-92.3092,-1.2002136)"
       id="g4102">
      <path
         sodipodi:nodetypes="ccsczc"
         id="path4104"
         d="M -106.2189,-170.65548 C -106.2189,-170.65548 -100.81794,-168.85516 -101.41805,-178.45687 C -94.816876,-175.45634 -97.967436,-167.3549 -79.814205,-158.65335 C -70.235513,-154.06191 -65.411642,-151.45207 -65.411642,-151.45207 C -65.411642,-151.45207 -86.41538,-150.25186 -96.617195,-155.05271 C -106.81901,-159.85356 -106.2189,-170.65548 -106.2189,-170.65548 z "
         style="fill:url(#linearGradient4112);fill-opacity:1;fill-rule:evenodd;stroke:#000000;stroke-width:1px;stroke-linecap:butt;stroke-linejoin:miter;stroke-opacity:1;filter:url(#filter4078)" />
      <path
         style="fill:url(#linearGradient4114);fill-opacity:1;fill-rule:evenodd;stroke:#000000;stroke-width:1px;stroke-linecap:butt;stroke-linejoin:miter;stroke-opacity:1"
         d="M -106.21891,-170.25398 C -106.21891,-170.25398 -100.81795,-168.45366 -101.41806,-178.05537 C -94.816876,-175.05484 -97.967436,-166.9534 -79.814205,-158.25185 C -70.235513,-153.66041 -65.411642,-151.05057 -65.411642,-151.05057 C -65.411642,-151.05057 -86.41538,-149.85036 -96.617195,-154.65121 C -106.81902,-159.45206 -106.21891,-170.25398 -106.21891,-170.25398 z "
         id="path4106"
         sodipodi:nodetypes="ccsczc" />
    </g>
    <path
       id="path4108"
       d="M 39.11419,-108.24438 L -13.095099,-128.64801 L -44.30065,-146.0511 L -46.70108,74.7882 L 13.90971,9.9766652 L 39.11419,-108.24438 z "
       style="fill:url(#linearGradient4116);fill-opacity:1;fill-rule:evenodd;stroke:#000000;stroke-width:1px;stroke-linecap:butt;stroke-linejoin:miter;stroke-opacity:1;filter:url(#filter4434)" />
    <path
       sodipodi:nodetypes="ccccc"
       id="path4110"
       d="M -18.49606,18.37816 C -18.49606,18.37816 -15.045447,19.7284 -7.6941375,14.777519 C -11.74486,22.428882 -15.495527,27.379763 -15.495527,27.379763 L -35.89916,42.382433 L -18.49606,18.37816 z "
       style="fill:#6f091b;fill-opacity:1;fill-rule:evenodd;stroke:#000000;stroke-width:1px;stroke-linecap:butt;stroke-linejoin:miter;stroke-opacity:1;filter:url(#filter4288)" />
  </g>
  <g
     inkscape:groupmode="layer"
     id="layer3"
     inkscape:label="top" />
</svg>
